<svg width="59" height="50" viewBox="0 0 59 50" fill="none" xmlns="http://www.w3.org/2000/svg">
<path d="M42.5 12L53.5 4.5M47 20.5H59" stroke="#FF6000" stroke-width="2"/>
<path d="M41.0342 17.7843C40.4494 16.0333 39.1552 14.7844 37.7203 14.351L33.9368 3.02321C33.7202 2.37483 32.7193 0.793286 31.1948 1.30245C30.761 1.44734 30.3892 1.76757 30.1513 2.22923L26.6544 9.00068C24.8971 12.3996 22.0957 14.8846 18.7654 15.997L7.06737 19.9042C4.91358 20.6236 3.8771 23.3296 4.75202 25.9491L7.12802 33.0627C8.00294 35.6822 10.4576 37.2222 12.6114 36.5028L14.6646 35.817C14.8393 36.6219 15.055 37.4279 15.3238 38.2326C16.3081 41.1796 17.8024 43.7759 19.6269 45.9332C20.2077 46.6197 21.0557 46.8612 21.7795 46.6194L26.3052 45.1078C27.8923 44.5777 28.1067 42.0483 26.6318 40.8342C25.1 39.5733 23.8417 37.7828 23.1219 35.628C22.8469 34.8047 22.6813 33.9804 22.5986 33.167L24.3095 32.5956C27.6397 31.4833 31.3722 31.7859 34.8188 33.4468L41.6832 36.7575C42.1411 36.9784 42.6316 37.0184 43.0743 36.8711C44.5926 36.364 44.4601 34.5319 44.232 33.8487L40.4484 22.5209C41.3352 21.3112 41.6191 19.5353 41.0342 17.7843ZM38.6853 30.2172L36.0173 28.9306C31.658 26.8283 26.9368 26.4465 22.7254 27.8531L20.3494 20.7394C24.5607 19.3328 28.1049 16.1904 30.3258 11.8903L31.685 9.25852L38.6853 30.2172Z" fill="black" fill-opacity="0.8"/>
</svg>
