<svg width="13" height="22" viewBox="0 0 13 22" fill="none" xmlns="http://www.w3.org/2000/svg">
<path d="M12.1 1C12.1 0.944772 12.0552 0.9 12 0.9H9C7.6474 0.9 6.35019 1.43732 5.39376 2.39376C4.43732 3.35019 3.9 4.6474 3.9 6V8.9H1C0.944772 8.9 0.9 8.94477 0.9 9V13C0.9 13.0552 0.944772 13.1 1 13.1H3.9V21C3.9 21.0552 3.94477 21.1 4 21.1H8C8.05523 21.1 8.1 21.0552 8.1 21V13.1H11C11.0459 13.1 11.0859 13.0688 11.097 13.0243L12.097 9.02425C12.1045 8.99438 12.0978 8.96273 12.0788 8.93846C12.0599 8.91419 12.0308 8.9 12 8.9H8.1V6C8.1 5.76131 8.19482 5.53239 8.3636 5.3636C8.53239 5.19482 8.76131 5.1 9 5.1H12C12.0552 5.1 12.1 5.05523 12.1 5V1Z" fill="#003CB0" stroke="white" stroke-width="0.2" stroke-linecap="round" stroke-linejoin="round"/>
</svg>
