<svg width="36" height="42" viewBox="0 0 36 42" fill="none" xmlns="http://www.w3.org/2000/svg">
<path d="M26.5 5.44995H30.75C31.8772 5.44995 32.9582 5.86611 33.7552 6.60688C34.5522 7.34765 35 8.35235 35 9.39995V37.05C35 38.0976 34.5522 39.1023 33.7552 39.843C32.9582 40.5838 31.8772 41 30.75 41H5.25C4.12283 41 3.04183 40.5838 2.2448 39.843C1.44777 39.1023 1 38.0976 1 37.05V9.39995C1 8.35235 1.44777 7.34765 2.2448 6.60688C3.04183 5.86611 4.12283 5.44995 5.25 5.44995H9.5" stroke="black" stroke-opacity="0.8" stroke-width="2" stroke-linecap="round" stroke-linejoin="round"/>
<path d="M24.375 1.5H11.625C10.4514 1.5 9.5 2.38424 9.5 3.475V7.425C9.5 8.51576 10.4514 9.4 11.625 9.4H24.375C25.5486 9.4 26.5 8.51576 26.5 7.425V3.475C26.5 2.38424 25.5486 1.5 24.375 1.5Z" stroke="black" stroke-opacity="0.8" stroke-width="2" stroke-linecap="round" stroke-linejoin="round"/>
<path d="M23.1567 21.6891C22.8587 21.3911 22.505 21.1546 22.1156 20.9933C21.7263 20.8319 21.3089 20.7489 20.8875 20.7489C20.466 20.7489 20.0487 20.8319 19.6594 20.9933C19.27 21.1546 18.9163 21.3911 18.6183 21.6891L18 22.3075L17.3817 21.6891C16.7798 21.0873 15.9636 20.7492 15.1125 20.7492C14.2614 20.7492 13.4452 21.0873 12.8433 21.6891C12.2415 22.291 11.9034 23.1072 11.9034 23.9583C11.9034 24.8094 12.2415 25.6256 12.8433 26.2275L13.4617 26.8458L18 31.3841L22.5383 26.8458L23.1567 26.2275C23.4547 25.9295 23.6912 25.5758 23.8525 25.1864C24.0139 24.7971 24.0969 24.3798 24.0969 23.9583C24.0969 23.5368 24.0139 23.1195 23.8525 22.7302C23.6912 22.3408 23.4547 21.9871 23.1567 21.6891Z" fill="#FF6000"/>
</svg>
