<svg width="44" height="39" viewBox="0 0 44 39" fill="none" xmlns="http://www.w3.org/2000/svg">
<path d="M21.9267 9.43323L26.1967 6.64576C27.1313 6.03567 28.1769 5.61563 29.2738 5.40962C30.3707 5.20362 31.4975 5.21568 32.5897 5.44513C33.682 5.67457 34.7183 6.11691 35.6396 6.74687C36.5609 7.37683 37.3491 8.18209 37.9592 9.11667C38.5693 10.0512 38.9893 11.0968 39.1953 12.1937C39.4013 13.2907 39.3893 14.4174 39.1598 15.5096C38.9304 16.6019 38.4881 17.6382 37.8581 18.5595C37.2281 19.4808 36.4229 20.269 35.4883 20.8791L31.2183 23.6666M22.6783 29.2415L18.4082 32.029C17.4737 32.6391 16.4281 33.0591 15.3312 33.2651C14.2343 33.4711 13.1075 33.4591 12.0153 33.2296C9.80938 32.7662 7.87792 31.4456 6.64578 29.5581C5.41364 27.6706 4.98176 25.371 5.44515 23.1651C5.90853 20.9592 7.22922 19.0278 9.11669 17.7956L13.3867 15.0082" stroke="black" stroke-opacity="0.8" stroke-width="2" stroke-linecap="round" stroke-linejoin="round"/>
<path d="M16.6092 23.054L27.9959 15.6207" stroke="#FF6000" stroke-width="2" stroke-linecap="round" stroke-linejoin="round"/>
</svg>
