<svg width="38" height="41" viewBox="0 0 38 41" fill="none" xmlns="http://www.w3.org/2000/svg">
<path d="M32.5062 18.55H4.93827C2.76322 18.55 1 20.2961 1 22.45V36.1C1 38.2539 2.76322 40 4.93827 40H32.5062C34.6812 40 36.4444 38.2539 36.4444 36.1V22.45C36.4444 20.2961 34.6812 18.55 32.5062 18.55Z" stroke="black" stroke-opacity="0.8" stroke-width="2" stroke-linecap="round" stroke-linejoin="round"/>
<path d="M8.87656 18.55V10.75C8.87656 8.16413 9.91387 5.68418 11.7603 3.85571C13.6067 2.02723 16.111 1 18.7222 1C21.3335 1 23.8378 2.02723 25.6842 3.85571C27.5306 5.68418 28.5679 8.16413 28.5679 10.75V18.55" stroke="black" stroke-opacity="0.8" stroke-width="2" stroke-linecap="round" stroke-linejoin="round"/>
<path d="M22.3831 27.6189C22.1876 27.4227 21.9556 27.267 21.7001 27.1608C21.4447 27.0547 21.1709 27 20.8944 27C20.6178 27 20.344 27.0547 20.0886 27.1608C19.8331 27.267 19.6011 27.4227 19.4056 27.6189L18.9999 28.0258L18.5942 27.6189C18.1994 27.2227 17.6638 27.0002 17.1054 27.0002C16.547 27.0002 16.0115 27.2227 15.6167 27.6189C15.2218 28.015 15 28.5522 15 29.1124C15 29.6726 15.2218 30.2098 15.6167 30.6059L16.0224 31.0129L18.9999 34L21.9774 31.0129L22.3831 30.6059C22.5787 30.4098 22.7338 30.177 22.8397 29.9207C22.9455 29.6645 23 29.3898 23 29.1124C23 28.835 22.9455 28.5603 22.8397 28.3041C22.7338 28.0478 22.5787 27.815 22.3831 27.6189Z" fill="#FF6000"/>
</svg>
