<svg width="45" height="43" viewBox="0 0 45 43" fill="none" xmlns="http://www.w3.org/2000/svg">
<path d="M19.9527 5.97441H5.34133C4.23414 5.97441 3.17229 6.3933 2.38939 7.13892C1.60649 7.88455 1.16666 8.89583 1.16666 9.9503V37.7815C1.16666 38.8359 1.60649 39.8472 2.38939 40.5928C3.17229 41.3385 4.23414 41.7574 5.34133 41.7574H34.5641C35.6713 41.7574 36.7331 41.3385 37.516 40.5928C38.2989 39.8472 38.7387 38.8359 38.7387 37.7815V23.8659" stroke="black" stroke-opacity="0.8" stroke-width="2" stroke-linecap="round" stroke-linejoin="round"/>
<path d="M35.6077 2.9925C36.4381 2.20165 37.5644 1.75735 38.7387 1.75735C39.9131 1.75735 41.0393 2.20165 41.8697 2.9925C42.7001 3.78336 43.1666 4.85598 43.1666 5.97441C43.1666 7.09285 42.7001 8.16547 41.8697 8.95633L22.04 27.8418L13.6907 29.8297L15.778 21.8779L35.6077 2.9925Z" stroke="#FF6000" stroke-width="2" stroke-linecap="round" stroke-linejoin="round"/>
</svg>
