<svg width="34" height="33" viewBox="0 0 34 33" fill="none" xmlns="http://www.w3.org/2000/svg">
<path d="M17 0.3125C7.61148 0.3125 0 7.04188 0 15.3438C0 18.9252 1.42176 22.2097 3.78648 24.7918C2.95242 28.4274 0.179297 31.6736 0.146094 31.7119C0.0745894 31.7939 0.0267404 31.8968 0.00847018 32.0081C-0.00980005 32.1193 0.00231075 32.234 0.0433033 32.3378C0.0842959 32.4416 0.15237 32.5301 0.239099 32.5923C0.325828 32.6544 0.427403 32.6875 0.53125 32.6875C4.93133 32.6875 8.23371 30.3931 9.86797 28.9745C12.0388 29.8641 14.4493 30.375 17 30.375C26.3885 30.375 34 23.6456 34 15.3438C34 7.04188 26.3885 0.3125 17 0.3125ZM18.5938 22.1685V23.4375C18.5938 24.0763 18.1183 24.5938 17.5312 24.5938H16.4688C15.8817 24.5938 15.4062 24.0763 15.4062 23.4375V22.1562C14.6479 22.0587 13.9267 21.7812 13.2959 21.3281C12.8828 21.0311 12.843 20.3807 13.1929 19.9998L14.3564 18.7337C14.6047 18.4635 14.9746 18.4273 15.2934 18.587C15.5045 18.6925 15.7356 18.7475 15.9747 18.7475H18.1515C18.4609 18.7475 18.712 18.4743 18.712 18.139C18.712 17.868 18.5446 17.6273 18.3055 17.5529L14.9806 16.5195C13.503 16.0606 12.3237 14.7338 12.1311 13.0746C11.8621 10.7571 13.3948 8.77986 15.4062 8.51826V7.25C15.4062 6.61117 15.8817 6.09375 16.4688 6.09375H17.5312C18.1183 6.09375 18.5938 6.61117 18.5938 7.25V8.53127C19.3521 8.62883 20.0733 8.90633 20.7041 9.35943C21.1172 9.65645 21.157 10.3068 20.8071 10.6877L19.6436 11.9538C19.3953 12.224 19.0254 12.2602 18.7066 12.1005C18.4928 11.9941 18.2604 11.9394 18.0253 11.94H15.8485C15.5391 11.94 15.288 12.2132 15.288 12.5485C15.288 12.8195 15.4554 13.0602 15.6945 13.1346L19.0194 14.168C20.497 14.6276 21.6763 15.9537 21.8689 17.6129C22.1379 19.9297 20.6052 21.9069 18.5938 22.1685Z" fill="#FF6000"/>
</svg>
