<svg width="20" height="17" viewBox="0 0 20 17" fill="none" xmlns="http://www.w3.org/2000/svg">
<path d="M19 1.81628V6.72538H14.0909" stroke="black" stroke-opacity="0.8" stroke-width="2" stroke-linecap="round" stroke-linejoin="round"/>
<path d="M1 14.9071V9.99805H5.90909" stroke="black" stroke-opacity="0.8" stroke-width="2" stroke-linecap="round" stroke-linejoin="round"/>
<path d="M3.05364 5.90716C3.46859 4.73452 4.17384 3.68612 5.10356 2.85977C6.03329 2.03342 7.1572 1.45605 8.37042 1.18155C9.58363 0.907043 10.8466 0.944343 12.0415 1.28997C13.2364 1.6356 14.3243 2.27828 15.2036 3.15806L19 6.72534M1 9.99806L4.79636 13.5653C5.6757 14.4451 6.76358 15.0878 7.95848 15.4334C9.15338 15.7791 10.4164 15.8164 11.6296 15.5419C12.8428 15.2673 13.9667 14.69 14.8964 13.8636C15.8262 13.0373 16.5314 11.9889 16.9464 10.8162" stroke="black" stroke-opacity="0.8" stroke-width="2" stroke-linecap="round" stroke-linejoin="round"/>
</svg>
