<svg width="47" height="47" viewBox="0 0 47 47" fill="none" xmlns="http://www.w3.org/2000/svg">
<path d="M21.5 41C29.5081 41 36 34.5081 36 26.5C36 18.4919 29.5081 12 21.5 12C13.4919 12 7 18.4919 7 26.5C7 34.5081 13.4919 41 21.5 41Z" stroke="black" stroke-opacity="0.6" stroke-width="2" stroke-linecap="round" stroke-linejoin="round"/>
<path d="M21.5 35C26.1944 35 30 31.1944 30 26.5C30 21.8056 26.1944 18 21.5 18C16.8056 18 13 21.8056 13 26.5C13 31.1944 16.8056 35 21.5 35Z" stroke="black" stroke-opacity="0.6" stroke-width="2" stroke-linecap="round" stroke-linejoin="round"/>
<path d="M43.8277 13.6535C45.2186 12.2634 46 10.3781 46 8.41225C46 6.4464 45.2186 4.56106 43.8277 3.171C42.4368 1.78093 40.5504 1 38.5834 1C36.6164 1 34.7299 1.78093 33.3391 3.171L25 11.5051V22H35.501L43.8277 13.6535Z" stroke="#FF6000" stroke-width="2" stroke-linecap="round" stroke-linejoin="round"/>
<path d="M39 9L21 26" stroke="#FF6000" stroke-width="2" stroke-linecap="round" stroke-linejoin="round"/>
<path d="M40 17H30" stroke="#FF6000" stroke-width="2" stroke-linecap="round" stroke-linejoin="round"/>
<path d="M21 46C32.0457 46 41 37.0457 41 26C41 14.9543 32.0457 6 21 6C9.9543 6 1 14.9543 1 26C1 37.0457 9.9543 46 21 46Z" stroke="black" stroke-opacity="0.6" stroke-width="2" stroke-linecap="round" stroke-linejoin="round"/>
</svg>
